<?xml version="1.0" encoding="UTF-8" standalone="no"?> <svg id="Line" xmlns="http://www.w3.org/2000/svg" viewBox="0 0 64 64"><title>1</title><path d="M32.085,4A27.63432,27.63432,0,0,0,20.86182,6.34473a1.0066,1.0066,0,0,0-.46288,1.415L32.94873,29.5a.99985.99985,0,0,0,.86621.5H58.915a1.00693,1.00693,0,0,0,.99412-1.10939A27.94461,27.94461,0,0,0,32.085,4Zm2.30762,24L22.70068,7.74609A26.0157,26.0157,0,0,1,57.7749,28Z"/><path d="M16.27979,9.28125a.99276.99276,0,0,0-.79834.17383A27.98209,27.98209,0,0,0,4.12354,33.48828c.71264,19.0749,21.8313,32.17823,39.18526,24.16661a1.00665,1.00665,0,0,0,.46218-1.41466L16.94141,9.75977A1.00037,1.00037,0,0,0,16.27979,9.28125Zm14.79736,48.7002A25.99907,25.99907,0,0,1,15.78027,11.749L41.46973,56.25391A25.66046,25.66046,0,0,1,31.07715,57.98145Z"/><path d="M58.915,34H37.28516a1.00743,1.00743,0,0,0-.86618,1.5l10.81,18.74021a1.0066,1.0066,0,0,0,1.46.30468A28.0273,28.0273,0,0,0,59.90918,35.1084,1.0064,1.0064,0,0,0,58.915,34ZM48.38965,52.25,39.0166,36H57.7749A26.0365,26.0365,0,0,1,48.38965,52.25Z"/><style>path{fill:white; stroke:white}</style></svg>