<?xml version="1.0" encoding="UTF-8"?>
<!DOCTYPE svg PUBLIC "-//W3C//DTD SVG 1.1//EN" "http://www.w3.org/Graphics/SVG/1.1/DTD/svg11.dtd">
<!-- Creator: CorelDRAW 2021 (64-Bit) -->
<svg xmlns="http://www.w3.org/2000/svg" xml:space="preserve" width="84.6666mm" height="84.6666mm" version="1.1" style="shape-rendering:geometricPrecision; text-rendering:geometricPrecision; image-rendering:optimizeQuality; fill-rule:evenodd; clip-rule:evenodd"
viewBox="0 0 8466.66 8466.66"
 xmlns:xlink="http://www.w3.org/1999/xlink"
 xmlns:xodm="http://www.corel.com/coreldraw/odm/2003">
 <defs>
  <style type="text/css">
   <![CDATA[
    .fil0 {fill:url(#id2);fill-rule:nonzero}
   ]]>
  </style>
   <mask id="id0">
  <linearGradient id="id1" gradientUnits="userSpaceOnUse" x1="-281.29" y1="-281.28" x2="9046.81" y2="9004.13">
   <stop offset="0" style="stop-opacity:0.568627; stop-color:white"/>
   <stop offset="1" style="stop-opacity:1; stop-color:white"/>
  </linearGradient>
    <rect style="fill:url(#id1)" x="42.34" y="42.34" width="8381.99" height="8382"/>
   </mask>
  <linearGradient id="id2" gradientUnits="userSpaceOnUse" x1="42.34" y1="4233.34" x2="8424.33" y2="4233.34">
   <stop offset="0" style="stop-opacity:1; stop-color:blue"/>
   <stop offset="1" style="stop-opacity:1; stop-color:aqua"/>
  </linearGradient>
 </defs>
 <g id="Layer_x0020_1">
  <metadata id="CorelCorpID_0Corel-Layer"/>
  <path class="fil0" style="mask:url(#id0)" d="M6860.47 6709.21c-117.15,-264.34 -355.02,-457.98 -711.81,-580.93l-42.6 -16.91 10.65 -18.44c55.02,0 173.96,49.18 353.24,146 181.06,98.36 321.29,252.05 422.47,461.06 10.65,18.44 23.08,53.79 40.83,104.5 49.7,101.44 74.56,212.09 74.56,328.89 0,344.26 -204.14,645.48 -614.19,903.67 -408.27,258.19 -836.07,387.29 -1283.39,387.29 -481.06,0 -898.21,-92.21 -1249.67,-275.1 -351.47,-182.88 -534.31,-441.08 -548.5,-771.5 -138.47,15.37 -241.41,23.05 -308.87,23.05 -424.25,0 -793.47,-115.26 -1105.88,-344.25 -314.2,-230.53 -470.41,-551.73 -470.41,-966.68 0,-119.88 15.98,-225.92 46.16,-315.06 -459.76,-75.3 -814.77,-228.99 -1061.51,-457.98 -246.73,-230.53 -369.21,-517.92 -369.21,-863.71 0,-327.35 129.58,-622.43 386.96,-885.23 257.39,-262.8 599.99,-448.76 1029.55,-560.95 -14.19,-72.23 -21.3,-136.78 -21.3,-193.64 0,-494.87 216.57,-945.17 647.91,-1346.29 433.13,-402.65 1031.34,-662.38 1796.4,-776.11l122.48 -16.9c182.84,-21.52 378.1,-32.28 584.01,-32.28 189.93,0 371,10.76 539.63,30.74 17.75,-61.47 58.58,-119.88 120.71,-178.28 -126.04,-49.17 -273.37,-73.76 -447.33,-73.76 -55.02,0 -83.43,-9.23 -83.43,-27.67 0,-18.44 28.41,-27.66 83.43,-27.66 166.86,0 328.4,27.66 481.06,81.45 264.48,-268.95 599.97,-404.19 1004.7,-404.19 275.14,0 486.37,49.18 633.7,147.54 149.11,96.82 218.35,176.74 213.01,236.67l-37.27 -36.88c-163.31,-195.18 -422.47,-292 -773.95,-292 -397.61,0 -729.55,124.48 -997.6,373.45 173.96,81.45 294.67,176.74 365.67,287.39 672.76,159.84 1199.97,416.49 1583.39,774.58 383.42,356.55 575.13,748.44 575.13,1177.23 0,339.64 -106.5,631.64 -317.74,877.54 287.56,122.95 509.45,290.47 662.11,504.09 154.43,212.08 230.76,451.83 230.76,719.25 0,341.18 -118.93,622.42 -358.57,840.65 -237.87,219.77 -511.23,328.89 -820.09,328.89 -459.75,0 -832.53,-98.36 -1118.31,-293.54 -51.48,-36.88 -97.64,-73.77 -140.23,-112.19 -120.71,-115.26 -181.06,-189.03 -181.06,-221.31l10.65 -18.44c72.77,93.75 136.68,167.52 191.71,221.31 31.94,29.2 81.66,67.62 150.88,112.19 266.26,170.59 599.98,256.65 997.6,256.65 351.47,0 628.39,-110.65 832.52,-330.42 204.14,-219.77 307.09,-494.87 307.09,-826.83 0,-216.69 -67.45,-433.39 -204.13,-647.01 -134.92,-213.62 -330.17,-384.21 -585.79,-510.24 -102.95,116.8 -228.98,202.87 -376.32,256.66 -197.03,75.3 -395.84,104.5 -594.65,86.06 -317.74,-26.13 -475.73,-113.73 -475.73,-261.26 0,-99.9 94.08,-182.89 284.02,-248.97 172.18,-59.94 411.83,-63.01 720.69,-9.23 172.18,29.21 319.51,70.7 441.99,121.42 179.29,-222.85 268.05,-471.82 268.05,-746.91 0,-378.07 -165.09,-748.45 -497.03,-1112.69 -330.16,-364.23 -825.42,-622.42 -1483.98,-776.11l0 63.01c0,119.88 -30.18,215.16 -90.53,284.32 -62.13,69.16 -140.23,102.97 -236.09,102.97 -94.07,0 -181.06,-43.03 -262.71,-127.56 -83.44,-86.06 -124.25,-193.64 -124.25,-322.74 0,-44.57 3.54,-76.84 10.65,-93.75 -193.49,-12.29 -351.48,-18.44 -475.73,-18.44 -292.89,0 -559.16,23.06 -797.02,67.62l-124.26 18.45c-674.53,132.17 -1208.83,373.45 -1602.91,726.93 -392.29,351.94 -589.33,748.45 -589.33,1191.06 0,79.92 3.55,138.32 10.65,175.2 193.49,-50.72 376.32,-76.84 548.51,-76.84 225.43,0 436.66,38.42 637.26,113.73 115.37,41.49 221.88,95.28 321.29,158.29 266.26,165.98 399.39,358.09 399.39,576.32 0,129.1 -51.48,242.82 -156.2,341.18 -104.74,98.36 -236.09,147.54 -395.85,147.54l-83.43 0c-220.11,0 -436.68,-61.47 -651.46,-184.42 -379.87,-216.7 -603.54,-556.34 -672.77,-1022.01 -379.86,107.58 -679.85,282.78 -898.19,524.07 -218.34,241.28 -326.61,517.92 -326.61,828.36 0,330.42 108.27,610.13 324.83,839.12 214.79,228.99 525.43,384.22 930.15,465.67 124.26,-318.13 376.32,-570.17 752.65,-756.13 214.79,-104.51 417.14,-175.2 607.08,-212.09 175.73,-32.27 328.39,-49.18 456.19,-49.18 237.87,0 436.68,53.79 596.43,162.91l-10.65 18.44 -31.94 -9.22c-172.18,-78.38 -363.89,-116.8 -575.13,-116.8 -117.16,0 -259.17,15.37 -424.25,44.57 -204.14,36.88 -402.94,107.58 -598.21,212.08 -333.72,181.35 -553.83,424.18 -658.56,731.55 142.01,23.05 307.1,35.34 493.47,35.34 241.42,0 486.38,-36.88 731.35,-112.19 211.23,-63.01 365.66,-116.8 466.84,-162.9 339.05,-146 610.64,-307.37 816.55,-481.04 205.91,-175.2 308.87,-324.27 308.87,-450.3l21.3 -27.66 21.3 27.66c0,122.95 -102.96,275.1 -307.1,456.45 -204.13,181.35 -473.94,351.94 -811.21,511.77 -170.42,79.92 -319.52,138.32 -447.32,175.2 -294.67,78.38 -546.74,118.34 -754.42,118.34 -218.34,0 -402.94,-12.29 -555.6,-35.35 -21.3,92.21 -31.96,185.96 -31.96,278.17 0,399.59 154.44,713.1 463.3,943.63 307.1,228.99 651.46,344.26 1027.78,344.26 60.35,0 145.56,-6.15 255.62,-18.45 0,-204.4 65.67,-388.82 197.03,-554.8 133.13,-164.44 276.92,-247.43 433.12,-247.43 175.74,0 264.49,89.13 264.49,265.87 0,270.49 -252.06,454.91 -756.19,553.27 65.69,298.15 260.94,525.6 584.01,685.44 323.07,158.29 708.26,238.21 1155.59,238.21 431.34,0 834.29,-106.04 1207.06,-318.13 370.99,-210.55 557.38,-487.18 557.38,-825.29 0,-122.95 -14.2,-221.31 -40.83,-293.54l-42.6 -121.41zm49.7 121.41c-243.19,170.59 -489.92,256.66 -738.44,256.66 -202.36,0 -392.29,-47.65 -571.58,-141.4 -177.5,-95.28 -330.16,-247.43 -459.74,-459.51 -129.59,-212.09 -204.14,-333.5 -225.44,-367.31 -134.91,12.29 -232.54,18.44 -294.67,18.44 -683.41,0 -1260.32,-149.07 -1728.94,-448.76l-62.12 -49.18c-248.52,-176.74 -436.68,-393.43 -564.48,-651.63l-21.31 -44.57c-83.43,-202.86 -124.26,-428.78 -124.26,-673.14l10.66 -210.55 10.65 -55.32c55.02,-341.18 228.98,-653.17 520.09,-937.48l31.96 -35.35c236.09,-207.48 481.04,-365.77 733.11,-477.96 252.06,-112.19 399.4,-169.06 440.23,-169.06l53.25 9.23 -72.78 35.34c-370.99,170.59 -649.69,421.1 -832.52,753.06l-21.3 44.57c-142.01,287.39 -213.02,608.59 -213.02,963.61l0 79.91c0,155.23 24.86,307.37 72.78,453.37l10.66 44.57c92.3,265.88 236.09,497.94 433.12,699.27l40.83 35.35c358.57,348.87 800.57,524.07 1324.22,524.07 88.75,0 152.66,-1.54 189.93,-3.08 -170.41,-232.06 -370.99,-347.33 -601.75,-347.33 -83.43,0 -189.94,18.45 -319.53,55.33l-21.29 -27.66c0,-29.2 69.23,-67.62 207.68,-115.27 136.68,-46.1 299.99,-69.16 489.94,-69.16 351.46,0 624.83,124.49 816.54,375 204.13,-79.92 388.74,-189.04 550.27,-328.89l21.3 -18.44c378.09,-347.33 566.26,-748.45 566.26,-1203.36 0,-130.63 -10.65,-255.12 -31.95,-373.45l-14.21 -39.96c-28.4,-144.47 -79.88,-288.93 -156.2,-433.39l-21.3 -36.89c-227.21,-399.58 -646.14,-668.53 -1258.54,-805.31 -610.64,-136.78 -1024.24,-295.08 -1240.79,-476.42 -214.79,-179.82 -323.07,-442.62 -323.07,-789.95 0,-161.37 60.35,-324.27 181.06,-487.18 62.13,-82.99 129.58,-153.68 200.58,-212.09 273.37,-216.69 578.69,-324.27 919.5,-324.27 55.03,0 83.44,9.22 83.44,27.66 0,18.44 -28.41,27.67 -83.44,27.67 -294.66,0 -562.71,86.06 -802.34,259.72 -86.98,63.01 -154.43,133.71 -202.36,210.55 -69.23,110.66 -104.73,219.77 -104.73,327.35 0,505.63 493.48,822.22 1482.2,946.7 1017.13,138.32 1640.19,564.03 1874.5,1278.67l10.65 44.56c30.18,110.66 51.48,227.46 62.13,350.41l0 112.19c0,690.04 -328.4,1260.22 -985.17,1708.98l-30.19 16.9c-179.28,116.8 -390.52,219.77 -633.71,310.45l118.93 181.35c165.09,261.26 321.3,425.71 470.41,490.25 147.33,64.55 305.32,96.83 473.95,96.83 111.83,0 218.33,-19.98 319.51,-58.41l30.18 -7.68c71,-27.66 156.21,-76.84 257.39,-146l21.31 18.44c0,35.35 -78.12,116.8 -236.1,242.82l-31.95 26.13zm221.89 -2995.33c133.13,-49.18 243.19,-127.56 333.72,-233.6 -120.71,-46.1 -253.84,-82.99 -395.85,-109.11 -305.31,-56.87 -537.85,-56.87 -701.16,0 -163.31,55.32 -244.96,121.41 -244.96,198.25 0,119.87 133.13,195.18 401.16,224.38 204.14,24.59 406.5,-3.07 607.09,-79.92zm-3702.85 3482.51c468.63,-107.58 702.95,-292 702.95,-553.26 0,-129.1 -63.91,-193.65 -193.49,-193.65 -120.71,0 -237.87,58.4 -353.25,175.2 -115.38,116.8 -172.18,255.12 -172.18,414.95l15.97 156.76zm2227.74 -6574.66c-79.88,-104.5 -193.47,-184.42 -342.59,-238.21 -51.48,53.79 -95.85,109.12 -129.58,165.98 127.8,12.3 285.79,36.89 472.17,72.23zm-523.65 89.14l0 76.84c0,119.88 33.73,218.24 101.18,293.54 67.46,75.31 140.23,112.19 220.11,112.19 189.94,0 285.79,-107.58 285.79,-324.27 0,-32.28 -3.55,-56.87 -10.65,-72.23 -186.38,-38.43 -385.19,-67.63 -596.43,-86.07zm-2472.71 2236.12c-200.58,-69.15 -397.61,-102.97 -592.87,-102.97 -202.37,0 -386.98,21.52 -555.61,66.09 69.23,428.78 280.46,751.52 633.71,968.22 209.47,127.56 418.92,192.1 631.94,192.1l92.29 0c145.57,0 260.95,-44.57 351.48,-133.7 88.75,-89.14 133.12,-196.72 133.12,-321.2 0,-181.35 -122.47,-348.87 -365.66,-504.09 -118.94,-73.77 -228.99,-129.1 -328.4,-164.45zm1748.47 144.47c0,75.3 21.31,150.61 65.69,225.92 42.59,75.3 161.52,185.95 355.01,330.42 195.26,144.46 319.52,276.63 378.1,393.43 56.8,118.34 85.2,238.22 85.2,359.63 0,170.59 -67.45,330.42 -202.35,481.03 -134.91,150.61 -292.89,272.03 -473.95,365.77 -181.07,93.75 -282.25,141.39 -303.56,141.39 -14.19,0 -21.29,-9.22 -21.29,-27.66l46.15 -23.05c339.04,-156.76 507.68,-361.16 507.68,-611.67 0,-73.77 -17.76,-150.61 -55.03,-227.45 -37.28,-78.38 -140.23,-190.57 -310.64,-338.11 -170.41,-147.54 -278.69,-276.64 -328.39,-388.83 -47.93,-110.65 -72.78,-222.84 -72.78,-331.96 0,-287.39 99.4,-499.47 296.43,-637.79 198.82,-138.32 408.28,-207.48 630.17,-207.48l31.95 18.45 -51.48 13.83c-385.19,76.84 -576.91,232.06 -576.91,464.13z"/>
 </g>
</svg>
